<?xml version="1.0" encoding="utf-8"?>
<!-- Generator: Adobe Illustrator 19.2.0, SVG Export Plug-In . SVG Version: 6.00 Build 0)  -->
<svg version="1.1" id="Layer_1" xmlns="http://www.w3.org/2000/svg" xmlns:xlink="http://www.w3.org/1999/xlink" x="0px" y="0px"
	 viewBox="0 0 960 960" style="enable-background:new 0 0 960 960;" xml:space="preserve">
<style type="text/css">
	.st0{fill:#D8B77D;}
	.st1{fill:#EFCD8B;}
	.st2{fill:#FFEEC5;}
	.st3{fill:#E0BF77;}
	.st4{fill:#EACB86;}
	.st5{fill:#FFE094;}
</style>
<g id="Layer_1_1_">
	<g>
		<g>
			<path class="st0" d="M256.7,734.8l-27.9-27.9c-31.7-31.7-31.7-83.2,0-114.9l371.8-372c31.7-31.7,83.2-31.7,114.9,0l27.9,27.9
				c31.7,31.7,31.7,83.2,0,114.9l-371.8,372C339.9,766.6,288.4,766.6,256.7,734.8z"/>
			<path class="st1" d="M252.6,723.1l-27.9-27.9c-31.7-31.7-31.7-83.2,0-114.9l371.9-371.9c31.7-31.7,83.2-31.7,114.9,0l27.9,27.9
				c31.7,31.7,31.7,83.2,0,114.9L367.5,723.1C335.8,754.8,284.3,754.8,252.6,723.1z"/>
			<path class="st2" d="M458.9,579l-90.1-90.1c-2.2-2.2-2.2-5.9,0-8.1L489.5,360c2.2-2.2,5.9-2.2,8.1,0l90.1,90.1
				c2.2,2.2,2.2,5.9,0,8.1L467,579C464.7,581.2,461.1,581.2,458.9,579z"/>
			<g>
				
					<ellipse transform="matrix(0.7071 -0.7071 0.7071 0.7071 -269.1296 396.6077)" class="st3" cx="344.2" cy="523.2" rx="9.7" ry="9.7"/>
				
					<ellipse transform="matrix(0.7071 -0.7071 0.7071 0.7071 -286.0897 437.5073)" class="st3" cx="385.1" cy="564.1" rx="9.7" ry="9.7"/>
				
					<ellipse transform="matrix(0.7071 -0.7071 0.7071 0.7071 -303.0498 478.407)" class="st3" cx="426" cy="605" rx="9.7" ry="9.7"/>
				
					<ellipse transform="matrix(0.7071 -0.7071 0.7071 0.7071 -301.9753 382.1517)" class="st3" cx="310.3" cy="555.6" rx="9.7" ry="9.7"/>
				
					<ellipse transform="matrix(0.7071 -0.7071 0.7071 0.7071 -318.9355 423.0514)" class="st3" cx="351.2" cy="596.5" rx="9.7" ry="9.7"/>
				
					<ellipse transform="matrix(0.7071 -0.7071 0.7071 0.7071 -335.8955 463.9509)" class="st3" cx="392.1" cy="637.4" rx="9.7" ry="9.7"/>
				
					<ellipse transform="matrix(0.7071 -0.7071 0.7071 0.7071 -334.8212 367.6957)" class="st3" cx="276.4" cy="588" rx="9.7" ry="9.7"/>
				
					<ellipse transform="matrix(0.7071 -0.7071 0.7071 0.7071 -351.7105 408.6246)" class="st3" cx="317.4" cy="628.9" rx="9.7" ry="9.7"/>
				
					<ellipse transform="matrix(0.7071 -0.7071 0.7071 0.7071 -368.6706 449.5242)" class="st3" cx="358.3" cy="669.8" rx="9.7" ry="9.7"/>
			</g>
			<g>
				
					<ellipse transform="matrix(0.7071 -0.7071 0.7071 0.7071 -11.3321 503.4024)" class="st3" cx="602" cy="265.4" rx="9.7" ry="9.7"/>
				
					<ellipse transform="matrix(0.7071 -0.7071 0.7071 0.7071 -28.2922 544.3019)" class="st3" cx="642.9" cy="306.3" rx="9.7" ry="9.7"/>
				
					<ellipse transform="matrix(0.7071 -0.7071 0.7071 0.7071 -45.2523 585.2016)" class="st3" cx="683.8" cy="347.2" rx="9.7" ry="9.7"/>
				
					<ellipse transform="matrix(0.7071 -0.7071 0.7071 0.7071 -44.1779 488.9464)" class="st3" cx="568.1" cy="297.8" rx="9.7" ry="9.7"/>
				
					<ellipse transform="matrix(0.7071 -0.7071 0.7071 0.7071 -61.1379 529.846)" class="st3" cx="609" cy="338.7" rx="9.7" ry="9.7"/>
				
					<ellipse transform="matrix(0.7071 -0.7071 0.7071 0.7071 -78.0272 570.7749)" class="st3" cx="650" cy="379.6" rx="9.7" ry="9.7"/>
				
					<ellipse transform="matrix(0.7071 -0.7071 0.7071 0.7071 -76.9236 474.449)" class="st3" cx="534.2" cy="330.1" rx="9.7" ry="9.7"/>
				
					<ellipse transform="matrix(0.7071 -0.7071 0.7071 0.7071 -93.913 515.4193)" class="st3" cx="575.2" cy="371.1" rx="9.7" ry="9.7"/>
				
					<ellipse transform="matrix(0.7071 -0.7071 0.7071 0.7071 -110.8731 556.3189)" class="st3" cx="616.1" cy="412" rx="9.7" ry="9.7"/>
			</g>
		</g>
		<g>
			<path class="st4" d="M731.3,723.8l-27.9,27.9c-31.7,31.7-83.2,31.7-114.9,0l-372-371.9c-31.7-31.7-31.7-83.2,0-114.9l27.9-27.9
				c31.7-31.7,83.2-31.7,114.9,0l371.9,371.9C763,640.6,763,692,731.3,723.8z"/>
			<path class="st5" d="M731.3,707.4l-27.9,27.9c-31.7,31.7-83.2,31.7-114.9,0l-372-371.9c-31.7-31.7-31.7-83.2,0-114.9l27.9-27.9
				c31.7-31.7,83.2-31.7,114.9,0l371.9,371.9C763,624.2,763,675.7,731.3,707.4z"/>
			<path class="st2" d="M587.1,501.1L497,591.2c-2.2,2.2-5.9,2.2-8.1,0L368.2,470.5c-2.2-2.2-2.2-5.9,0-8.1l90.1-90.1
				c2.2-2.2,5.9-2.2,8.1,0L587.1,493C589.4,495.3,589.4,498.9,587.1,501.1z"/>
			<g>
				
					<ellipse transform="matrix(0.7071 -0.7071 0.7071 0.7071 -279.8039 556.0923)" class="st3" cx="531.4" cy="615.8" rx="9.7" ry="9.7"/>
				
					<ellipse transform="matrix(0.7071 -0.7071 0.7071 0.7071 -238.9044 573.0525)" class="st3" cx="572.3" cy="574.9" rx="9.7" ry="9.7"/>
				
					<ellipse transform="matrix(0.7071 -0.7071 0.7071 0.7071 -198.0047 590.0126)" class="st3" cx="613.2" cy="534" rx="9.7" ry="9.7"/>
				
					<ellipse transform="matrix(0.7071 -0.7071 0.7071 0.7071 -294.26 588.9381)" class="st3" cx="563.8" cy="649.7" rx="9.7" ry="9.7"/>
				
					<ellipse transform="matrix(0.7071 -0.7071 0.7071 0.7071 -253.3604 605.8982)" class="st3" cx="604.7" cy="608.8" rx="9.7" ry="9.7"/>
				
					<ellipse transform="matrix(0.7071 -0.7071 0.7071 0.7071 -212.4608 622.8583)" class="st3" cx="645.6" cy="567.9" rx="9.7" ry="9.7"/>
				
					<ellipse transform="matrix(0.7071 -0.7071 0.7071 0.7071 -308.7867 621.7546)" class="st3" cx="596.1" cy="683.6" rx="9.7" ry="9.7"/>
				
					<ellipse transform="matrix(0.7071 -0.7071 0.7071 0.7071 -267.7871 638.6733)" class="st3" cx="637.1" cy="642.6" rx="9.7" ry="9.7"/>
				
					<ellipse transform="matrix(0.7071 -0.7071 0.7071 0.7071 -226.8875 655.6334)" class="st3" cx="678" cy="601.7" rx="9.7" ry="9.7"/>
			</g>
			<g>
				
					<ellipse transform="matrix(0.7071 -0.7071 0.7071 0.7071 -173.0093 298.2948)" class="st3" cx="273.6" cy="358" rx="9.7" ry="9.7"/>
				
					<ellipse transform="matrix(0.7071 -0.7071 0.7071 0.7071 -132.1098 315.255)" class="st3" cx="314.5" cy="317.1" rx="9.7" ry="9.7"/>
				
					<ellipse transform="matrix(0.7071 -0.7071 0.7071 0.7071 -91.2101 332.215)" class="st3" cx="355.4" cy="276.2" rx="9.7" ry="9.7"/>
				
					<ellipse transform="matrix(0.7071 -0.7071 0.7071 0.7071 -187.4653 331.1407)" class="st3" cx="306" cy="391.9" rx="9.7" ry="9.7"/>
				
					<ellipse transform="matrix(0.7071 -0.7071 0.7071 0.7071 -146.5657 348.1007)" class="st3" cx="346.9" cy="351" rx="9.7" ry="9.7"/>
				
					<ellipse transform="matrix(0.7071 -0.7071 0.7071 0.7071 -105.6368 364.9901)" class="st3" cx="387.8" cy="310" rx="9.7" ry="9.7"/>
				
					<ellipse transform="matrix(0.7071 -0.7071 0.7071 0.7071 -201.9627 363.8864)" class="st3" cx="338.3" cy="425.7" rx="9.7" ry="9.7"/>
				
					<ellipse transform="matrix(0.7071 -0.7071 0.7071 0.7071 -160.9925 380.8758)" class="st3" cx="379.3" cy="384.8" rx="9.7" ry="9.7"/>
				
					<ellipse transform="matrix(0.7071 -0.7071 0.7071 0.7071 -120.0928 397.8359)" class="st3" cx="420.2" cy="343.9" rx="9.7" ry="9.7"/>
			</g>
		</g>
	</g>
</g>
</svg>
