<?xml version="1.0" encoding="UTF-8" standalone="no"?>
<!DOCTYPE svg PUBLIC "-//W3C//DTD SVG 1.1//EN" "http://www.w3.org/Graphics/SVG/1.1/DTD/svg11.dtd">
<svg version="1.1" xmlns="http://www.w3.org/2000/svg" xmlns:xlink="http://www.w3.org/1999/xlink" preserveAspectRatio="xMidYMid meet" viewBox="138.52047290283554 29.508196721311485 378.86592762886085 520.5294118568805" width="378.87" height="520.53"><defs><path d="M504.36 88.73C488.57 100.57 456.98 116.36 417.5 106.49C347.76 89.38 328.02 29.51 328.02 29.51C328.02 29.51 308.15 89.32 238.53 106.49C198.46 116.36 167.47 100.44 151.02 88.79C150.19 88.79 146.02 88.79 138.52 88.79C138.52 282.24 138.52 389.71 138.52 411.2C138.52 419.76 140.49 435.55 153.72 452C170.1 471.74 197.74 484.44 235.97 489.96C266.89 494.37 289.26 503.98 305.06 519.31C316.9 530.56 328.09 550.04 328.09 550.04C328.09 550.04 339.6 530.17 350.85 519.31C366.77 503.98 389.34 494.44 419.94 489.96C458.23 484.43 485.74 471.54 502.19 451.74C515.41 435.68 517.39 419.56 517.39 411.47C517.39 389.97 517.39 282.5 517.39 89.06L504.82 89.06" id="a2JcsZ0YAz"></path><path d="M505.67 101.23C505.67 101.23 467.71 130.77 414.21 117.41C351.9 101.82 327.36 55.17 327.36 55.17C327.36 55.17 303.15 101.89 240.51 117.41C187.87 130.57 149.71 100.97 149.71 100.97C149.71 131.96 149.71 379.88 149.71 410.87C149.71 421.4 154.11 466.14 237.88 477.99C270.84 482.76 295.45 493.32 312.89 510.36C319.25 516.47 324.07 522.67 327.76 528.39C331.46 522.69 336.31 516.48 342.63 510.36C360.33 493.32 384.93 482.73 417.64 477.99C501.2 465.95 505.15 421.2 505.81 410.87C505.81 390.21 505.81 286.91 505.81 100.97" id="a14maGHjbm"></path><path d="M328.02 497.53C328.02 497.53 352.23 467.66 414.87 457.99C487.25 446.87 484.62 413.05 484.62 411.34C484.62 400.5 484.62 346.33 484.62 248.81L170.76 248.81C170.76 346.33 170.76 400.5 170.76 411.34C170.76 413.05 168.63 446.87 240.51 457.99C303.41 467.72 327.36 497.53 327.36 497.53" id="aq0XyMXrb"></path><path d="M254.33 367.71L254.31 290.73L244.64 285.3L244.64 265.3L288.79 265.3L288.79 285.3L279.58 290.73L279.58 447.98L256.02 440.94L221.94 340.27L221.93 406.73L232.79 415.02L232.79 435.48L185.48 423.44L185.48 406.01L196.34 401.77L196.34 290.57L185.22 285.07L185.22 265.07L221.01 265.07L254.44 367.72" id="cDdtb7a6V"></path><path d="M335.92 438.11L345.39 449.43L345.39 469.43L298.48 451.93L298.48 434.96L308.81 430.72L308.81 290.57L298.54 285.36L298.54 265.1L380.13 265.1L380.13 305.83L362.23 305.83L356.81 289.11L336.09 289.11L336.09 336.23L351.61 336.23L357.73 327.28L370.24 327.28L370.24 369.19L357.73 369.19L351.84 360.7L336.05 360.7L336.05 438.35" id="b1doSbHW4Z"></path><path d="M387.9 445.35L387.9 425.35L399.54 415.81L399.54 290.79L389.61 285.59L389.61 265.32L436.52 265.32L436.52 285.59L427.31 290.79L427.31 408.57L447.51 403.12L451.38 372.32L470.66 372.32L470.66 423.78L387.75 445.89" id="c12x9Ue3y"></path><path d="M178.99 215.72L164.77 205.06L182.14 205.06L187.88 188.61L193.61 205.06L210.98 205.06L196.77 215.78L201.99 232.5L187.84 222.56L173.7 232.5L178.92 215.78" id="c5DihwATmR"></path><path d="M240.51 215.72L226.3 205.06L243.67 205.06L249.4 188.61L255.13 205.06L272.5 205.06L258.29 215.78L263.51 232.5L249.36 222.56L235.22 232.5L240.44 215.78" id="cd8iCQcJl"></path><path d="M178.99 160.45L164.77 149.79L182.14 149.79L187.88 133.34L193.61 149.79L210.98 149.79L196.77 160.51L201.99 177.23L187.84 167.29L173.7 177.23L178.92 160.51" id="b2wcuqQka"></path><path d="M240.51 160.45L226.3 149.79L243.67 149.79L249.4 133.34L255.13 149.79L272.5 149.79L258.29 160.51L263.51 177.23L249.36 167.29L235.22 177.23L240.44 160.51" id="a98x77Dr"></path><path d="M481.99 232.17L467.84 222.23L453.69 232.17L458.92 215.45L444.71 204.73L462.08 204.73L467.81 188.28L473.54 204.73L490.91 204.73L476.7 215.45L481.93 232.17" id="d3wnIqVN5"></path><path d="M420.14 232.17L405.99 222.23L391.84 232.17L397.07 215.45L382.86 204.73L400.23 204.73L405.96 188.28L411.69 204.73L429.07 204.73L414.85 215.45L420.08 232.17" id="ctKl7FGhN"></path><path d="M481.99 176.9L467.84 166.96L453.69 176.9L458.92 160.18L444.71 149.46L462.08 149.46L467.81 133.01L473.54 149.46L490.91 149.46L476.7 160.18L481.93 176.9" id="c1XbpbWN"></path><path d="M420.14 176.9L405.99 166.96L391.84 176.9L397.07 160.18L382.86 149.46L400.23 149.46L405.96 133.01L411.69 149.46L429.07 149.46L414.85 160.18L420.08 176.9" id="a4kLa6RKag"></path><path d="M320.26 137.75C322.08 136.02 323.95 134.54 325.58 133.17C334.99 135.44 341.31 139.65 345.65 143.24C344.11 144.82 342.62 146.36 341.21 147.93C334.86 142.73 327.76 139.39 320.26 137.75ZM310.39 148.41C311.66 146.77 313.14 145.02 314.57 143.4C320.91 144.53 329.05 147.87 336.15 153.74C334.7 155.47 333.35 157.24 332.07 158.91C326.01 153.87 318.68 150.12 310.39 148.41ZM302.29 160.31C302.29 160.31 304.58 156.59 305.87 154.66C314.95 156.47 322.32 160.72 327.52 165.06C326.19 166.95 324.93 168.77 323.81 170.44C317.31 165.03 309.73 161.7 302.29 160.31ZM366.77 115.44C366.77 115.44 359.4 119.28 349.14 129.39C351.46 130.7 354.06 132.53 355.56 133.77C354 135.15 352.42 136.63 350.94 138.03C344.23 132.52 337.32 129.74 331.93 128.42C333.72 127.14 335.62 125.88 337.49 124.65C340.39 125.39 343.19 126.53 343.19 126.53C354.77 117.71 364.84 113.89 364.84 113.89C364.84 113.89 363.68 113.32 360.58 113.37C314.98 113.95 273.06 147.98 280.96 206.14C281.81 212.32 284.21 223.58 287.26 228.51C288.28 218.84 291.92 197.39 302.73 174.36C298.97 173.01 295.88 172.46 295.88 172.46C296.99 170.14 298.52 167.19 298.52 167.19C306.55 168.7 313.59 172.04 319.71 176.93C318.24 179.3 317.25 180.85 316.54 182.07C314.4 180.38 312.23 178.93 309.83 177.6C297.66 198.85 292.07 218.92 289.76 229.38C289.89 230.03 291.21 230.36 292.28 230.22C342.22 223.75 365.31 198.25 372.55 170.68C377.23 152.58 375.7 133.63 369.43 118.17C368.99 117.08 368.14 115.28 366.68 115.41" id="c1OWJTeQXg"></path><path d="M172.67 272.52C161.21 261.07 161.21 242.45 172.67 230.99C186.11 217.54 293.62 109.97 307.06 96.53C318.52 85.07 337.14 85.07 348.6 96.53C349.6 97.53 357.67 105.6 358.68 106.61C370.14 118.07 370.14 136.68 358.68 148.14C345.24 161.59 237.73 269.16 224.29 282.61C212.83 294.1 194.21 294.1 182.76 282.61C180.74 280.59 173.68 273.53 172.67 272.52Z" id="fs811urFi"></path><path d="M171.19 268.29C159.73 256.84 159.73 238.22 171.19 226.76C184.63 213.32 292.18 105.78 305.62 92.33C317.08 80.87 335.69 80.87 347.15 92.33C348.16 93.34 356.23 101.41 357.24 102.42C368.69 113.88 368.69 132.49 357.24 143.95C343.79 157.39 236.25 264.94 222.81 278.38C211.35 289.84 192.73 289.84 181.27 278.38C179.26 276.36 172.2 269.3 171.19 268.29Z" id="c2JjzfJwCa"></path><path d="M223.28 193.72C222.48 192.93 222.48 191.59 223.28 190.8C227.64 186.43 262.54 151.5 266.9 147.13C267.7 146.34 269.04 146.34 269.83 147.13C273.09 150.39 299.14 176.44 302.4 179.7C303.2 180.49 303.2 181.83 302.4 182.63C298.04 186.99 263.13 221.93 258.77 226.29C257.94 227.09 256.64 227.09 255.84 226.29C249.33 219.78 226.53 196.98 223.28 193.72Z" id="a1vGxv8SzN"></path><path d="M216.87 203.64C218.24 205 218.24 207.22 216.87 208.59C215.5 209.96 213.28 209.96 211.91 208.59C210.54 207.22 210.54 205 211.91 203.64C213.28 202.27 215.5 202.27 216.87 203.64Z" id="huUGdUigx"></path><path d="M231.64 218.42C233.01 219.79 233.01 222.01 231.64 223.38C230.27 224.75 228.05 224.75 226.68 223.38C225.32 222.01 225.32 219.79 226.68 218.42C228.05 217.05 230.27 217.05 231.64 218.42Z" id="a1IiWYLjiB"></path><path d="M246.42 233.2C247.79 234.57 247.79 236.79 246.42 238.16C245.05 239.53 242.83 239.53 241.46 238.16C240.09 236.79 240.09 234.57 241.46 233.2C242.83 231.83 245.05 231.83 246.42 233.2Z" id="aEgaeogIe"></path><path d="M204.61 215.36C205.98 216.73 205.98 218.95 204.61 220.31C203.24 221.68 201.02 221.68 199.65 220.31C198.28 218.95 198.28 216.73 199.65 215.36C201.02 213.99 203.24 213.99 204.61 215.36Z" id="d3sQY1pTfT"></path><path d="M219.39 230.14C220.76 231.51 220.76 233.73 219.39 235.1C218.02 236.47 215.8 236.47 214.43 235.1C213.06 233.73 213.06 231.51 214.43 230.14C215.8 228.77 218.02 228.77 219.39 230.14Z" id="c3g5AETShg"></path><path d="M234.16 244.92C235.53 246.29 235.53 248.51 234.16 249.88C232.8 251.25 230.58 251.25 229.21 249.88C227.84 248.51 227.84 246.29 229.21 244.92C230.58 243.55 232.8 243.55 234.16 244.92Z" id="hTUOv0k8f"></path><path d="M192.35 227.08C193.72 228.45 193.72 230.67 192.35 232.03C190.99 233.4 188.77 233.4 187.4 232.03C186.03 230.67 186.03 228.45 187.4 227.08C188.77 225.71 190.99 225.71 192.35 227.08Z" id="aihnxMe8v"></path><path d="M207.18 241.85C208.55 243.21 208.55 245.43 207.18 246.8C205.81 248.17 203.59 248.17 202.22 246.8C200.85 245.43 200.85 243.21 202.22 241.85C203.59 240.48 205.81 240.48 207.18 241.85Z" id="b1Hcsev2MQ"></path><path d="M221.96 256.63C223.33 258 223.33 260.22 221.96 261.59C220.59 262.96 218.37 262.96 217 261.59C215.63 260.22 215.63 258 217 256.63C218.37 255.26 220.59 255.26 221.96 256.63Z" id="b50hp19PG"></path><path d="M310.05 110.45C311.42 111.82 311.42 114.04 310.05 115.41C308.68 116.78 306.46 116.78 305.09 115.41C303.72 114.04 303.72 111.82 305.09 110.45C306.46 109.09 308.68 109.09 310.05 110.45Z" id="ezx9DyVkX"></path><path d="M324.83 125.24C326.2 126.61 326.2 128.83 324.83 130.2C323.46 131.57 321.24 131.57 319.87 130.2C318.5 128.83 318.5 126.61 319.87 125.24C321.24 123.87 323.46 123.87 324.83 125.24Z" id="aOw6uQtuD"></path><path d="M339.61 140.02C340.97 141.39 340.97 143.61 339.61 144.98C338.24 146.35 336.02 146.35 334.65 144.98C333.28 143.61 333.28 141.39 334.65 140.02C336.02 138.65 338.24 138.65 339.61 140.02Z" id="a1hrv69alv"></path><path d="M297.8 122.17C299.16 123.54 299.16 125.76 297.8 127.13C296.43 128.5 294.21 128.5 292.84 127.13C291.47 125.76 291.47 123.54 292.84 122.17C294.21 120.81 296.43 120.81 297.8 122.17Z" id="c132lMWU8J"></path><path d="M312.57 136.96C313.94 138.33 313.94 140.55 312.57 141.92C311.2 143.29 308.98 143.29 307.61 141.92C306.24 140.55 306.24 138.33 307.61 136.96C308.98 135.59 311.2 135.59 312.57 136.96Z" id="a2dLCtZ6dE"></path><path d="M327.4 151.73C328.77 153.1 328.77 155.32 327.4 156.69C326.03 158.06 323.81 158.06 322.44 156.69C321.07 155.32 321.07 153.1 322.44 151.73C323.81 150.36 326.03 150.36 327.4 151.73Z" id="c2RJH2g412"></path><path d="M285.55 133.85C286.92 135.22 286.92 137.44 285.55 138.81C284.18 140.18 281.96 140.18 280.59 138.81C279.22 137.44 279.22 135.22 280.59 133.85C281.96 132.49 284.18 132.49 285.55 133.85Z" id="aOtofrdo5"></path><path d="M300.37 148.66C301.74 150.03 301.74 152.25 300.37 153.62C299 154.99 296.78 154.99 295.41 153.62C294.04 152.25 294.04 150.03 295.41 148.66C296.78 147.29 299 147.29 300.37 148.66Z" id="hFhkCMFhw"></path><path d="M315.14 163.45C316.51 164.82 316.51 167.04 315.14 168.41C313.78 169.78 311.56 169.78 310.19 168.41C308.82 167.04 308.82 164.82 310.19 163.45C311.56 162.08 313.78 162.08 315.14 163.45Z" id="bbXiGv54C"></path><path d="M344.22 288.72C332.76 300.18 314.15 300.18 302.69 288.72C289.24 275.27 181.67 167.73 168.22 154.29C156.77 142.83 156.77 124.21 168.22 112.76C169.23 111.75 177.3 103.68 178.31 102.67C189.77 91.21 208.38 91.21 219.84 102.67C233.28 116.11 340.83 223.66 354.27 237.1C365.77 248.56 365.77 267.14 354.31 278.63C352.29 280.65 345.23 287.71 344.22 288.72Z" id="b2BnPTVAGo"></path><path d="M344.22 282.79C332.76 294.25 314.15 294.25 302.69 282.79C289.24 269.35 181.67 161.8 168.22 148.36C156.77 136.9 156.77 118.29 168.22 106.83C169.23 105.82 177.3 97.75 178.31 96.74C189.77 85.28 208.38 85.28 219.84 96.74C233.28 110.19 340.83 217.73 354.27 231.17C365.77 242.63 365.77 261.25 354.31 272.7C352.29 274.72 345.23 281.78 344.22 282.79Z" id="b1SkGOsyKT"></path><path d="M269.62 230.7C268.82 231.5 267.48 231.5 266.69 230.7C262.33 226.34 227.42 191.44 223.06 187.07C222.26 186.28 222.26 184.94 223.06 184.15C226.32 180.89 252.37 154.83 255.63 151.58C256.42 150.78 257.76 150.78 258.56 151.58C262.92 155.94 297.82 190.84 302.18 195.21C303.02 196.04 303.02 197.34 302.18 198.13C295.67 204.65 272.87 227.45 269.62 230.7Z" id="b1bi8M8iNS"></path><path d="M284.52 237.1C285.89 238.47 285.89 240.69 284.52 242.06C283.15 243.43 280.93 243.43 279.56 242.06C278.2 240.69 278.2 238.47 279.56 237.1C280.93 235.74 283.15 235.74 284.52 237.1Z" id="m8WUopx8Yg"></path><path d="M299.31 222.33C300.68 223.7 300.68 225.92 299.31 227.29C297.94 228.66 295.72 228.66 294.35 227.29C292.98 225.92 292.98 223.7 294.35 222.33C295.72 220.96 297.94 220.96 299.31 222.33Z" id="c1q5eA4IBk"></path><path d="M314.09 207.55C315.46 208.92 315.46 211.14 314.09 212.51C312.72 213.88 310.5 213.88 309.13 212.51C307.76 211.14 307.76 208.92 309.13 207.55C310.5 206.18 312.72 206.18 314.09 207.55Z" id="g3Uip1fuy7"></path><path d="M296.24 249.36C297.61 250.73 297.61 252.95 296.24 254.32C294.87 255.69 292.65 255.69 291.28 254.32C289.92 252.95 289.92 250.73 291.28 249.36C292.65 247.99 294.87 247.99 296.24 249.36Z" id="l7viP3e7YN"></path><path d="M311.03 234.58C312.4 235.95 312.4 238.17 311.03 239.54C309.66 240.91 307.44 240.91 306.07 239.54C304.7 238.17 304.7 235.95 306.07 234.58C307.44 233.21 309.66 233.21 311.03 234.58Z" id="b8j2FUEeT"></path><path d="M325.81 219.81C327.18 221.18 327.18 223.4 325.81 224.77C324.44 226.13 322.22 226.13 320.85 224.77C319.48 223.4 319.48 221.18 320.85 219.81C322.22 218.44 324.44 218.44 325.81 219.81Z" id="d2Z0gx6RR4"></path><path d="M307.91 261.63C309.28 263 309.28 265.22 307.91 266.59C306.54 267.96 304.32 267.96 302.95 266.59C301.58 265.22 301.58 263 302.95 261.63C304.32 260.26 306.54 260.26 307.91 261.63Z" id="cF9UoiJNE"></path><path d="M322.73 246.79C324.1 248.16 324.1 250.38 322.73 251.75C321.36 253.12 319.14 253.12 317.77 251.75C316.4 250.38 316.4 248.16 317.77 246.79C319.14 245.42 321.36 245.42 322.73 246.79Z" id="e4uul5ZPk7"></path><path d="M337.52 232.01C338.89 233.38 338.89 235.6 337.52 236.97C336.15 238.34 333.93 238.34 332.56 236.97C331.19 235.6 331.19 233.38 332.56 232.01C333.93 230.64 336.15 230.64 337.52 232.01Z" id="a2n05gKtA1"></path><path d="M191.34 143.92C192.71 145.29 192.71 147.51 191.34 148.88C189.97 150.25 187.75 150.25 186.38 148.88C185.01 147.51 185.01 145.29 186.38 143.92C187.75 142.55 189.97 142.55 191.34 143.92Z" id="b1d6EyTCTC"></path><path d="M206.13 129.14C207.49 130.51 207.49 132.73 206.13 134.1C204.76 135.47 202.54 135.47 201.17 134.1C199.8 132.73 199.8 130.51 201.17 129.14C202.54 127.77 204.76 127.77 206.13 129.14Z" id="a2HAewUrPZ"></path><path d="M220.91 114.37C222.28 115.73 222.28 117.95 220.91 119.32C219.54 120.69 217.32 120.69 215.95 119.32C214.58 117.95 214.58 115.73 215.95 114.37C217.32 113 219.54 113 220.91 114.37Z" id="d3Ogq3NdE"></path><path d="M203.06 156.18C204.43 157.54 204.43 159.76 203.06 161.13C201.69 162.5 199.47 162.5 198.1 161.13C196.73 159.76 196.73 157.54 198.1 156.18C199.47 154.81 201.69 154.81 203.06 156.18Z" id="aiEP8xuG3"></path><path d="M217.85 141.4C219.22 142.77 219.22 144.99 217.85 146.36C216.48 147.73 214.26 147.73 212.89 146.36C211.52 144.99 211.52 142.77 212.89 141.4C214.26 140.03 216.48 140.03 217.85 141.4Z" id="a6eKqN4xsm"></path><path d="M232.61 126.57C233.98 127.94 233.98 130.16 232.61 131.53C231.25 132.9 229.03 132.9 227.66 131.53C226.29 130.16 226.29 127.94 227.66 126.57C229.03 125.2 231.25 125.2 232.61 126.57Z" id="a3KJ57lz6t"></path><path d="M214.72 168.4C216.09 169.76 216.09 171.98 214.72 173.35C213.35 174.72 211.13 174.72 209.76 173.35C208.39 171.98 208.39 169.76 209.76 168.4C211.13 167.03 213.35 167.03 214.72 168.4Z" id="aCjrRe0nT"></path><path d="M229.55 153.6C230.92 154.97 230.92 157.19 229.55 158.56C228.18 159.93 225.96 159.93 224.59 158.56C223.22 157.19 223.22 154.97 224.59 153.6C225.96 152.23 228.18 152.23 229.55 153.6Z" id="dRhAuOTXo"></path><path d="M244.34 138.83C245.7 140.2 245.7 142.42 244.34 143.79C242.97 145.15 240.75 145.15 239.38 143.79C238.01 142.42 238.01 140.2 239.38 138.83C240.75 137.46 242.97 137.46 244.34 138.83Z" id="cohNuLEYv"></path></defs><g><g><g><use xlink:href="#a2JcsZ0YAz" opacity="1" fill="#ffffff" fill-opacity="1"></use><g><use xlink:href="#a2JcsZ0YAz" opacity="1" fill-opacity="0" stroke="#000000" stroke-width="1" stroke-opacity="0"></use></g></g><g><use xlink:href="#a14maGHjbm" opacity="1" fill="#013369" fill-opacity="1"></use><g><use xlink:href="#a14maGHjbm" opacity="1" fill-opacity="0" stroke="#000000" stroke-width="1" stroke-opacity="0"></use></g></g><g><use xlink:href="#aq0XyMXrb" opacity="1" fill="#ffffff" fill-opacity="1"></use><g><use xlink:href="#aq0XyMXrb" opacity="1" fill-opacity="0" stroke="#000000" stroke-width="1" stroke-opacity="0"></use></g></g><g><use xlink:href="#cDdtb7a6V" opacity="1" fill="#d50a0a" fill-opacity="1"></use><g><use xlink:href="#cDdtb7a6V" opacity="1" fill-opacity="0" stroke="#000000" stroke-width="1" stroke-opacity="0"></use></g></g><g><use xlink:href="#b1doSbHW4Z" opacity="1" fill="#d50a0a" fill-opacity="1"></use><g><use xlink:href="#b1doSbHW4Z" opacity="1" fill-opacity="0" stroke="#000000" stroke-width="1" stroke-opacity="0"></use></g></g><g><use xlink:href="#c12x9Ue3y" opacity="1" fill="#d50a0a" fill-opacity="1"></use><g><use xlink:href="#c12x9Ue3y" opacity="1" fill-opacity="0" stroke="#000000" stroke-width="1" stroke-opacity="0"></use></g></g><g><use xlink:href="#c5DihwATmR" opacity="1" fill="#ffffff" fill-opacity="1"></use><g><use xlink:href="#c5DihwATmR" opacity="1" fill-opacity="0" stroke="#000000" stroke-width="1" stroke-opacity="0"></use></g></g><g><use xlink:href="#cd8iCQcJl" opacity="1" fill="#ffffff" fill-opacity="1"></use><g><use xlink:href="#cd8iCQcJl" opacity="1" fill-opacity="0" stroke="#000000" stroke-width="1" stroke-opacity="0"></use></g></g><g><use xlink:href="#b2wcuqQka" opacity="1" fill="#ffffff" fill-opacity="1"></use><g><use xlink:href="#b2wcuqQka" opacity="1" fill-opacity="0" stroke="#000000" stroke-width="1" stroke-opacity="0"></use></g></g><g><use xlink:href="#a98x77Dr" opacity="1" fill="#ffffff" fill-opacity="1"></use><g><use xlink:href="#a98x77Dr" opacity="1" fill-opacity="0" stroke="#000000" stroke-width="1" stroke-opacity="0"></use></g></g><g><use xlink:href="#d3wnIqVN5" opacity="1" fill="#ffffff" fill-opacity="1"></use><g><use xlink:href="#d3wnIqVN5" opacity="1" fill-opacity="0" stroke="#000000" stroke-width="1" stroke-opacity="0"></use></g></g><g><use xlink:href="#ctKl7FGhN" opacity="1" fill="#ffffff" fill-opacity="1"></use><g><use xlink:href="#ctKl7FGhN" opacity="1" fill-opacity="0" stroke="#000000" stroke-width="1" stroke-opacity="0"></use></g></g><g><use xlink:href="#c1XbpbWN" opacity="1" fill="#ffffff" fill-opacity="1"></use><g><use xlink:href="#c1XbpbWN" opacity="1" fill-opacity="0" stroke="#000000" stroke-width="1" stroke-opacity="0"></use></g></g><g><use xlink:href="#a4kLa6RKag" opacity="1" fill="#ffffff" fill-opacity="1"></use><g><use xlink:href="#a4kLa6RKag" opacity="1" fill-opacity="0" stroke="#000000" stroke-width="1" stroke-opacity="0"></use></g></g><g><use xlink:href="#c1OWJTeQXg" opacity="1" fill="#ffffff" fill-opacity="1"></use><g><use xlink:href="#c1OWJTeQXg" opacity="1" fill-opacity="0" stroke="#000000" stroke-width="1" stroke-opacity="0"></use></g></g></g><g><g><use xlink:href="#fs811urFi" opacity="1" fill="#d8b77d" fill-opacity="1"></use><g><use xlink:href="#fs811urFi" opacity="1" fill-opacity="0" stroke="#000000" stroke-width="1" stroke-opacity="0"></use></g></g><g><use xlink:href="#c2JjzfJwCa" opacity="1" fill="#efcd8b" fill-opacity="1"></use><g><use xlink:href="#c2JjzfJwCa" opacity="1" fill-opacity="0" stroke="#000000" stroke-width="1" stroke-opacity="0"></use></g></g><g><use xlink:href="#a1vGxv8SzN" opacity="1" fill="#ffeec5" fill-opacity="1"></use><g><use xlink:href="#a1vGxv8SzN" opacity="1" fill-opacity="0" stroke="#000000" stroke-width="1" stroke-opacity="0"></use></g></g><g><use xlink:href="#huUGdUigx" opacity="1" fill="#e0bf77" fill-opacity="1"></use><g><use xlink:href="#huUGdUigx" opacity="1" fill-opacity="0" stroke="#000000" stroke-width="1" stroke-opacity="0"></use></g></g><g><use xlink:href="#a1IiWYLjiB" opacity="1" fill="#e0bf77" fill-opacity="1"></use><g><use xlink:href="#a1IiWYLjiB" opacity="1" fill-opacity="0" stroke="#000000" stroke-width="1" stroke-opacity="0"></use></g></g><g><use xlink:href="#aEgaeogIe" opacity="1" fill="#e0bf77" fill-opacity="1"></use><g><use xlink:href="#aEgaeogIe" opacity="1" fill-opacity="0" stroke="#000000" stroke-width="1" stroke-opacity="0"></use></g></g><g><use xlink:href="#d3sQY1pTfT" opacity="1" fill="#e0bf77" fill-opacity="1"></use><g><use xlink:href="#d3sQY1pTfT" opacity="1" fill-opacity="0" stroke="#000000" stroke-width="1" stroke-opacity="0"></use></g></g><g><use xlink:href="#c3g5AETShg" opacity="1" fill="#e0bf77" fill-opacity="1"></use><g><use xlink:href="#c3g5AETShg" opacity="1" fill-opacity="0" stroke="#000000" stroke-width="1" stroke-opacity="0"></use></g></g><g><use xlink:href="#hTUOv0k8f" opacity="1" fill="#e0bf77" fill-opacity="1"></use><g><use xlink:href="#hTUOv0k8f" opacity="1" fill-opacity="0" stroke="#000000" stroke-width="1" stroke-opacity="0"></use></g></g><g><use xlink:href="#aihnxMe8v" opacity="1" fill="#e0bf77" fill-opacity="1"></use><g><use xlink:href="#aihnxMe8v" opacity="1" fill-opacity="0" stroke="#000000" stroke-width="1" stroke-opacity="0"></use></g></g><g><use xlink:href="#b1Hcsev2MQ" opacity="1" fill="#e0bf77" fill-opacity="1"></use><g><use xlink:href="#b1Hcsev2MQ" opacity="1" fill-opacity="0" stroke="#000000" stroke-width="1" stroke-opacity="0"></use></g></g><g><use xlink:href="#b50hp19PG" opacity="1" fill="#e0bf77" fill-opacity="1"></use><g><use xlink:href="#b50hp19PG" opacity="1" fill-opacity="0" stroke="#000000" stroke-width="1" stroke-opacity="0"></use></g></g><g><use xlink:href="#ezx9DyVkX" opacity="1" fill="#e0bf77" fill-opacity="1"></use><g><use xlink:href="#ezx9DyVkX" opacity="1" fill-opacity="0" stroke="#000000" stroke-width="1" stroke-opacity="0"></use></g></g><g><use xlink:href="#aOw6uQtuD" opacity="1" fill="#e0bf77" fill-opacity="1"></use><g><use xlink:href="#aOw6uQtuD" opacity="1" fill-opacity="0" stroke="#000000" stroke-width="1" stroke-opacity="0"></use></g></g><g><use xlink:href="#a1hrv69alv" opacity="1" fill="#e0bf77" fill-opacity="1"></use><g><use xlink:href="#a1hrv69alv" opacity="1" fill-opacity="0" stroke="#000000" stroke-width="1" stroke-opacity="0"></use></g></g><g><use xlink:href="#c132lMWU8J" opacity="1" fill="#e0bf77" fill-opacity="1"></use><g><use xlink:href="#c132lMWU8J" opacity="1" fill-opacity="0" stroke="#000000" stroke-width="1" stroke-opacity="0"></use></g></g><g><use xlink:href="#a2dLCtZ6dE" opacity="1" fill="#e0bf77" fill-opacity="1"></use><g><use xlink:href="#a2dLCtZ6dE" opacity="1" fill-opacity="0" stroke="#000000" stroke-width="1" stroke-opacity="0"></use></g></g><g><use xlink:href="#c2RJH2g412" opacity="1" fill="#e0bf77" fill-opacity="1"></use><g><use xlink:href="#c2RJH2g412" opacity="1" fill-opacity="0" stroke="#000000" stroke-width="1" stroke-opacity="0"></use></g></g><g><use xlink:href="#aOtofrdo5" opacity="1" fill="#e0bf77" fill-opacity="1"></use><g><use xlink:href="#aOtofrdo5" opacity="1" fill-opacity="0" stroke="#000000" stroke-width="1" stroke-opacity="0"></use></g></g><g><use xlink:href="#hFhkCMFhw" opacity="1" fill="#e0bf77" fill-opacity="1"></use><g><use xlink:href="#hFhkCMFhw" opacity="1" fill-opacity="0" stroke="#000000" stroke-width="1" stroke-opacity="0"></use></g></g><g><use xlink:href="#bbXiGv54C" opacity="1" fill="#e0bf77" fill-opacity="1"></use><g><use xlink:href="#bbXiGv54C" opacity="1" fill-opacity="0" stroke="#000000" stroke-width="1" stroke-opacity="0"></use></g></g><g><use xlink:href="#b2BnPTVAGo" opacity="1" fill="#eacb86" fill-opacity="1"></use><g><use xlink:href="#b2BnPTVAGo" opacity="1" fill-opacity="0" stroke="#000000" stroke-width="1" stroke-opacity="0"></use></g></g><g><use xlink:href="#b1SkGOsyKT" opacity="1" fill="#ffe094" fill-opacity="1"></use><g><use xlink:href="#b1SkGOsyKT" opacity="1" fill-opacity="0" stroke="#000000" stroke-width="1" stroke-opacity="0"></use></g></g><g><use xlink:href="#b1bi8M8iNS" opacity="1" fill="#ffeec5" fill-opacity="1"></use><g><use xlink:href="#b1bi8M8iNS" opacity="1" fill-opacity="0" stroke="#000000" stroke-width="1" stroke-opacity="0"></use></g></g><g><use xlink:href="#m8WUopx8Yg" opacity="1" fill="#e0bf77" fill-opacity="1"></use><g><use xlink:href="#m8WUopx8Yg" opacity="1" fill-opacity="0" stroke="#000000" stroke-width="1" stroke-opacity="0"></use></g></g><g><use xlink:href="#c1q5eA4IBk" opacity="1" fill="#e0bf77" fill-opacity="1"></use><g><use xlink:href="#c1q5eA4IBk" opacity="1" fill-opacity="0" stroke="#000000" stroke-width="1" stroke-opacity="0"></use></g></g><g><use xlink:href="#g3Uip1fuy7" opacity="1" fill="#e0bf77" fill-opacity="1"></use><g><use xlink:href="#g3Uip1fuy7" opacity="1" fill-opacity="0" stroke="#000000" stroke-width="1" stroke-opacity="0"></use></g></g><g><use xlink:href="#l7viP3e7YN" opacity="1" fill="#e0bf77" fill-opacity="1"></use><g><use xlink:href="#l7viP3e7YN" opacity="1" fill-opacity="0" stroke="#000000" stroke-width="1" stroke-opacity="0"></use></g></g><g><use xlink:href="#b8j2FUEeT" opacity="1" fill="#e0bf77" fill-opacity="1"></use><g><use xlink:href="#b8j2FUEeT" opacity="1" fill-opacity="0" stroke="#000000" stroke-width="1" stroke-opacity="0"></use></g></g><g><use xlink:href="#d2Z0gx6RR4" opacity="1" fill="#e0bf77" fill-opacity="1"></use><g><use xlink:href="#d2Z0gx6RR4" opacity="1" fill-opacity="0" stroke="#000000" stroke-width="1" stroke-opacity="0"></use></g></g><g><use xlink:href="#cF9UoiJNE" opacity="1" fill="#e0bf77" fill-opacity="1"></use><g><use xlink:href="#cF9UoiJNE" opacity="1" fill-opacity="0" stroke="#000000" stroke-width="1" stroke-opacity="0"></use></g></g><g><use xlink:href="#e4uul5ZPk7" opacity="1" fill="#e0bf77" fill-opacity="1"></use><g><use xlink:href="#e4uul5ZPk7" opacity="1" fill-opacity="0" stroke="#000000" stroke-width="1" stroke-opacity="0"></use></g></g><g><use xlink:href="#a2n05gKtA1" opacity="1" fill="#e0bf77" fill-opacity="1"></use><g><use xlink:href="#a2n05gKtA1" opacity="1" fill-opacity="0" stroke="#000000" stroke-width="1" stroke-opacity="0"></use></g></g><g><use xlink:href="#b1d6EyTCTC" opacity="1" fill="#e0bf77" fill-opacity="1"></use><g><use xlink:href="#b1d6EyTCTC" opacity="1" fill-opacity="0" stroke="#000000" stroke-width="1" stroke-opacity="0"></use></g></g><g><use xlink:href="#a2HAewUrPZ" opacity="1" fill="#e0bf77" fill-opacity="1"></use><g><use xlink:href="#a2HAewUrPZ" opacity="1" fill-opacity="0" stroke="#000000" stroke-width="1" stroke-opacity="0"></use></g></g><g><use xlink:href="#d3Ogq3NdE" opacity="1" fill="#e0bf77" fill-opacity="1"></use><g><use xlink:href="#d3Ogq3NdE" opacity="1" fill-opacity="0" stroke="#000000" stroke-width="1" stroke-opacity="0"></use></g></g><g><use xlink:href="#aiEP8xuG3" opacity="1" fill="#e0bf77" fill-opacity="1"></use><g><use xlink:href="#aiEP8xuG3" opacity="1" fill-opacity="0" stroke="#000000" stroke-width="1" stroke-opacity="0"></use></g></g><g><use xlink:href="#a6eKqN4xsm" opacity="1" fill="#e0bf77" fill-opacity="1"></use><g><use xlink:href="#a6eKqN4xsm" opacity="1" fill-opacity="0" stroke="#000000" stroke-width="1" stroke-opacity="0"></use></g></g><g><use xlink:href="#a3KJ57lz6t" opacity="1" fill="#e0bf77" fill-opacity="1"></use><g><use xlink:href="#a3KJ57lz6t" opacity="1" fill-opacity="0" stroke="#000000" stroke-width="1" stroke-opacity="0"></use></g></g><g><use xlink:href="#aCjrRe0nT" opacity="1" fill="#e0bf77" fill-opacity="1"></use><g><use xlink:href="#aCjrRe0nT" opacity="1" fill-opacity="0" stroke="#000000" stroke-width="1" stroke-opacity="0"></use></g></g><g><use xlink:href="#dRhAuOTXo" opacity="1" fill="#e0bf77" fill-opacity="1"></use><g><use xlink:href="#dRhAuOTXo" opacity="1" fill-opacity="0" stroke="#000000" stroke-width="1" stroke-opacity="0"></use></g></g><g><use xlink:href="#cohNuLEYv" opacity="1" fill="#e0bf77" fill-opacity="1"></use><g><use xlink:href="#cohNuLEYv" opacity="1" fill-opacity="0" stroke="#000000" stroke-width="1" stroke-opacity="0"></use></g></g></g></g></svg>